<?xml version="1.0" encoding="UTF-8"?><svg id="katman_1" xmlns="http://www.w3.org/2000/svg" viewBox="0 0 10 10"><defs><style>.cls-1{fill:#f2f5f6;}.cls-2{fill:#141433;}</style></defs><rect class="cls-2" width="10" height="10"/><path class="cls-1" d="m5.02,5s-.02,0-.03,0c0,0-.02,0-.03,0,0,0,.02,0,.03,0,0,0,.02,0,.03,0Z"/><path class="cls-1" d="m5.02,5s-.02,0-.03,0c0,0-.02,0-.03,0,0,0,.02,0,.03,0,0,0,.02,0,.03,0Z"/><path class="cls-1" d="m5.02,5s-.02,0-.03,0c0,0-.02,0-.03,0,0,0,.02,0,.03,0,0,0,.02,0,.03,0Z"/><path class="cls-1" d="m5.02,5s-.02,0-.03,0c0,0-.02,0-.03,0,0,0,.02,0,.03,0,0,0,.02,0,.03,0Z"/><path class="cls-1" d="m3.08,2.79c-.19.32-.29.7-.29,1.1,0,1.22.99,2.21,2.21,2.21s2.21-.99,2.21-2.21c0-.4-.11-.78-.29-1.1h.29s0-1.11,0-1.11h-2.21c-.82,0-1.54.45-1.92,1.11Zm3.03,1.11c0,.61-.5,1.11-1.11,1.11s-1.11-.5-1.11-1.11.5-1.11,1.11-1.11,1.11.5,1.11,1.11Z"/><path class="cls-1" d="m2.79,6.11h1.1-1.1c0,1.22.99,2.21,2.21,2.21s2.21-.99,2.21-2.21h-1.11c0,.61-.5,1.11-1.11,1.11s-1.11-.5-1.11-1.11h-1.1Z"/></svg>