<?xml version="1.0" encoding="UTF-8"?><svg id="katman_1" xmlns="http://www.w3.org/2000/svg" viewBox="0 0 478.33 86.06"><defs><style>.cls-1{fill:#fff;}</style></defs><path class="cls-1" d="m90.76,15.33h11.27c.42,0,.78.3.86.71l5.99,29.61h.12l6.05-29.61c.08-.41.45-.71.86-.71h11.21c.49,0,.88.39.88.88v41.19c0,.49-.4.88-.88.88h-6.18c-.49,0-.88-.39-.88-.88V23.99h-.12l-7.49,33.6c-.09.4-.45.69-.86.69h-5.32c-.41,0-.77-.29-.86-.69l-7.49-33.6h-.12v33.41c0,.49-.39.88-.88.88h-6.18c-.49,0-.88-.39-.88-.88V16.21c0-.49.4-.88.88-.88"/><path class="cls-1" d="m152.13,57.4V16.21c0-.49.39-.88.88-.88h6.9c.49,0,.88.4.88.88v34.97h14.46c.49,0,.88.39.88.88v5.34c0,.49-.39.88-.88.88h-22.24c-.49,0-.88-.4-.88-.88"/><path class="cls-1" d="m180.59,57.4V16.21c0-.49.39-.88.88-.88h6.9c.49,0,.88.4.88.88v34.97h14.46c.49,0,.88.39.88.88v5.34c0,.49-.39.88-.88.88h-22.24c-.49,0-.88-.4-.88-.88"/><path class="cls-1" d="m240.06,15.33h11.27c.42,0,.78.3.86.71l5.99,29.61h.12l6.05-29.61c.08-.41.45-.71.86-.71h11.21c.49,0,.88.39.88.88v41.19c0,.49-.4.88-.88.88h-6.18c-.49,0-.88-.39-.88-.88V23.99h-.12l-7.49,33.6c-.09.4-.45.69-.86.69h-5.32c-.41,0-.77-.29-.86-.69l-7.49-33.6h-.12v33.41c0,.49-.39.88-.88.88h-6.18c-.49,0-.88-.39-.88-.88V16.21c0-.49.4-.88.88-.88"/><path class="cls-1" d="m317.5,16.21c0-.49.39-.88.88-.88h13.32c12.03,0,14.2,8.24,14.2,20.87,0,15.22-3.25,22.08-14.74,22.08h-12.77c-.49,0-.88-.39-.88-.88V16.21Zm8.66,35.69h3.85c6.02,0,7.22-3.79,7.22-15.46,0-9.74-.78-14.74-7.4-14.74h-3.67v30.2Z"/><path class="cls-1" d="m361.25,15.33h9.35c.4,0,.75.27.85.66l10.9,41.19c.15.56-.27,1.11-.85,1.11h-7.17c-.41,0-.77-.29-.86-.69l-1.83-8.39h-11.43l-1.83,8.39c-.09.41-.45.69-.86.69h-7.17c-.58,0-1-.55-.85-1.11l10.9-41.19c.1-.39.45-.66.85-.66m.46,26.77h8.42l-4.15-19.31h-.12l-4.15,19.31Z"/><path class="cls-1" d="m387.14,15.33h22.24c.49,0,.88.39.88.88v5.33c0,.49-.39.88-.88.88h-14.46v10.11h13.56c.49,0,.88.39.88.88v5.33c0,.49-.4.88-.88.88h-13.56v17.77c0,.49-.39.88-.88.88h-6.9c-.49,0-.88-.39-.88-.88V16.21c0-.49.4-.88.88-.88"/><path class="cls-1" d="m423.15,15.33h9.35c.4,0,.75.27.85.66l10.9,41.19c.15.56-.27,1.11-.85,1.11h-7.17c-.41,0-.77-.29-.86-.69l-1.83-8.39h-11.43l-1.83,8.39c-.09.41-.45.69-.86.69h-7.17c-.58,0-1-.55-.85-1.11l10.9-41.19c.1-.39.45-.66.85-.66m.46,26.77h8.42l-4.15-19.31h-.12l-4.15,19.31Z"/><path class="cls-1" d="m457.2,15.33h9.35c.4,0,.75.27.85.66l10.9,41.19c.15.56-.27,1.11-.85,1.11h-7.17c-.41,0-.77-.29-.86-.69l-1.83-8.39h-11.43l-1.83,8.39c-.09.41-.45.69-.86.69h-7.17c-.58,0-1-.55-.85-1.11l10.9-41.19c.1-.39.45-.66.85-.66m.46,26.77h8.42l-4.15-19.31h-.12l-4.15,19.31Z"/><path class="cls-1" d="m6.32,48.76c.29-.17.46-.49.43-.83-.21-2.56-.24-5.31-.24-8.39V6.51h56.54v7.96c0,.68.74,1.1,1.32.76l4.75-2.74c.27-.16.44-.45.44-.76V3.53c0-1.95-1.58-3.53-3.53-3.53H3.53C1.58,0,0,1.58,0,3.53v36.01c0,4.09.08,7.75.51,11.17.08.62.78.96,1.32.64l4.5-2.6Z"/><path class="cls-1" d="m63.5,23.27c-.27.16-.44.45-.44.76v15.5c0,11.53-.42,18.49-9.11,27.62-7.08,7.45-15.93,10.91-16.24,11.07-.88.47-2.41,1.11-2.93,1.32-.52-.22-2.05-.86-2.93-1.32-.3-.16-9.15-3.62-16.24-11.07-3.66-3.85-5.85-7.32-7.16-10.9-.19-.52-.79-.75-1.27-.48l-4.18,2.41c-.38.22-.55.68-.39,1.09,1.6,4.06,4.17,8.04,8.28,12.37,6.48,6.81,14.13,10.72,18.13,12.46,1.06.54,2.48,1.14,3.26,1.47,1.59.66,3.39.66,4.98,0,.78-.32,2.2-.93,3.26-1.47,4-1.73,11.66-5.64,18.14-12.46,10.17-10.69,10.9-19.26,10.9-32.11v-18.25c0-.68-.74-1.1-1.32-.76l-4.75,2.74Z"/><path class="cls-1" d="m49.7,24.85h0s-.31.18-.31.18l-.53.31h0s-14.07,8.43-14.07,8.43l-14.07-8.43h0s-.53-.32-.53-.32l-.31-.19h0s-3.73-2.17-3.73-2.17c-.59-.34-1.33.08-1.33.76v29.62c0,.31.16.6.43.76l16.18,9.69c.59.35,1.33-.07,1.33-.76v-14.62c0-.31-.17-.6-.44-.76l-4.14-2.42c-.59-.34-1.33.08-1.33.76v8.18l-6.14-3.68v-17.99l13.62,8.16c.28.17.63.17.91,0l13.62-8.16v17.99l-6.14,3.68v-8.18c0-.68-.74-1.1-1.33-.76l-4.14,2.42c-.27.16-.44.45-.44.76v14.62c0,.69.75,1.11,1.33.76l16.18-9.69c.27-.16.43-.45.43-.76v-29.62c0-.68-.74-1.1-1.33-.76l-3.73,2.18Z"/><path class="cls-1" d="m35.12,15.91l1.3,3.99h4.19c.34,0,.48.44.21.64l-3.39,2.46,1.3,3.99c.11.32-.27.6-.54.39l-3.39-2.46-3.39,2.46c-.28.2-.65-.07-.54-.39l1.3-3.99-3.39-2.46c-.28-.2-.13-.64.21-.64h4.19l1.3-3.99c.11-.32.56-.32.67,0"/><path class="cls-1" d="m135.91,26l8.3-6.15c.18-.13.28-.34.28-.57v-3.08c0-.49-.39-.88-.88-.88h-6.9c-.49,0-.88.4-.88.88v41.19c0,.49.4.88.88.88h6.9c.49,0,.88-.4.88-.88v-24.68c0-.22-.11-.43-.28-.57l-8.3-6.15Z"/><path class="cls-1" d="m209.52,26l8.32-6.16c.18-.13.29-.34.29-.57v-3.07c0-.49-.4-.88-.88-.88h-6.9c-.49,0-.88.4-.88.88v41.19c0,.49.39.88.88.88h6.9c.49,0,.88-.4.88-.88v-24.67c0-.22-.11-.43-.29-.57l-8.32-6.16Z"/><path class="cls-1" d="m302.37,26l8.35-6.18c.18-.13.28-.34.28-.57v-3.05c0-.49-.39-.88-.88-.88h-6.9c-.49,0-.88.4-.88.88v29.08c0,4.27-1.02,7.46-5.05,7.46s-5.05-3.19-5.05-7.46v-12.53c0-.22-.11-.43-.29-.57l-8.35-6.19,8.35-6.19c.18-.13.29-.34.29-.57v-3.04c0-.49-.4-.88-.88-.88h-6.9c-.49,0-.88.4-.88.88v29.08c0,11.49,6.68,13.84,13.72,13.84s13.71-2.89,13.71-13.84v-12.53c0-.22-.11-.43-.28-.57l-8.35-6.18Z"/></svg>